<?xml version="1.0" standalone="no"?>
<!DOCTYPE svg PUBLIC "-//W3C//DTD SVG 20010904//EN"
 "http://www.w3.org/TR/2001/REC-SVG-20010904/DTD/svg10.dtd">
<svg version="1.0" xmlns="http://www.w3.org/2000/svg"
 width="512.000000pt" height="512.000000pt" viewBox="0 0 512.000000 512.000000"
 preserveAspectRatio="xMidYMid meet">
<metadata>
Created by potrace 1.14, written by Peter Selinger 2001-2017
</metadata>
<g transform="translate(0.000000,512.000000) scale(0.100000,-0.100000)"
fill="#000000" stroke="none">
<path d="M1526 4547 c-24 -17 -28 -41 -82 -467 l-47 -375 -49 -53 c-59 -66
-94 -165 -85 -242 11 -91 42 -143 147 -243 112 -108 238 -195 362 -252 l88
-40 -1 -40 c0 -38 -3 -42 -58 -78 -161 -104 -296 -291 -358 -494 -24 -81 -27
-106 -31 -300 l-4 -213 -31 -19 c-41 -25 -108 -96 -135 -141 -31 -53 -52 -136
-52 -205 0 -71 94 -438 130 -507 34 -65 84 -122 140 -158 57 -36 155 -70 205
-70 l34 0 -19 -42 c-27 -58 -25 -99 3 -126 23 -22 30 -22 301 -22 274 0 277 0
299 23 l22 22 22 -22 c22 -23 25 -23 303 -23 267 0 281 1 300 20 30 30 29 72
-1 131 l-18 36 93 5 c78 4 105 10 160 36 82 38 164 114 199 184 26 53 118 380
131 470 8 56 -8 157 -35 212 -10 22 -18 40 -16 41 1 2 37 10 79 19 209 46 335
173 346 350 5 89 -21 173 -83 266 -24 36 -126 148 -228 250 -180 181 -227 241
-227 294 0 59 95 89 345 106 341 23 463 57 564 158 84 85 112 182 71 250 -60
99 -190 95 -255 -7 -44 -71 -92 -84 -388 -106 -284 -22 -418 -59 -514 -139
-77 -65 -131 -202 -118 -299 19 -140 81 -230 322 -472 195 -195 236 -253 214
-301 -20 -46 -113 -71 -312 -88 l-57 -4 -5 156 c-4 121 -10 174 -27 232 -54
186 -171 357 -322 470 -86 64 -88 66 -88 107 l0 42 86 41 c189 88 415 275 471
388 55 113 30 250 -65 354 l-40 43 -52 405 c-71 551 -52 536 -340 273 -106
-98 -201 -177 -209 -177 -9 1 -52 12 -96 24 -114 33 -306 33 -420 0 -44 -12
-88 -23 -97 -24 -9 0 -90 67 -179 149 -237 219 -247 225 -293 192z m292 -877
c-38 -20 -72 -66 -83 -113 -10 -39 2 -89 31 -133 l26 -39 -40 39 c-39 37 -94
133 -107 187 -6 26 -4 28 57 47 76 25 95 29 128 30 22 1 21 -1 -12 -18z m1058
5 c97 -22 116 -34 109 -64 -13 -55 -66 -148 -106 -186 -37 -35 -39 -36 -16 -7
64 80 38 205 -53 253 -43 23 -21 25 66 4z m-1015 -84 c20 -16 22 -23 13 -38
-21 -34 -84 -24 -84 13 0 14 27 44 40 44 4 0 18 -9 31 -19z m839 -30 c0 -48
-73 -56 -78 -8 -3 21 2 29 20 36 29 11 58 -3 58 -28z m-588 -126 c3 -26 -1
-31 -42 -46 -25 -9 -58 -19 -75 -23 l-30 -7 36 25 c40 27 69 78 69 123 l1 28
19 -36 c10 -19 20 -48 22 -64z m476 -6 c12 -20 33 -41 47 -49 14 -7 23 -15 22
-17 -6 -6 -136 37 -142 47 -3 4 5 35 17 67 l22 58 6 -36 c4 -20 16 -51 28 -70z"/>
</g>
</svg>
