<?xml version="1.0" standalone="no"?>
<!DOCTYPE svg PUBLIC "-//W3C//DTD SVG 20010904//EN"
 "http://www.w3.org/TR/2001/REC-SVG-20010904/DTD/svg10.dtd">
<svg version="1.0" xmlns="http://www.w3.org/2000/svg"
 width="512.000000pt" height="512.000000pt" viewBox="0 0 512.000000 512.000000"
 preserveAspectRatio="xMidYMid meet">
<metadata>
Created by potrace 1.14, written by Peter Selinger 2001-2017
</metadata>
<g transform="translate(0.000000,512.000000) scale(0.100000,-0.100000)"
fill="#000000" stroke="none">
<path d="M2746 4549 c-142 -12 -303 -45 -441 -89 -138 -45 -348 -146 -450
-217 -57 -39 -71 -54 -73 -78 -3 -36 14 -62 48 -70 19 -4 44 6 105 45 182 117
404 208 609 250 116 24 372 46 412 35 27 -6 23 -9 -51 -36 -323 -118 -609
-345 -806 -638 -357 -531 -378 -1225 -55 -1775 244 -414 653 -704 1122 -796
281 -55 560 -31 859 75 33 11 -53 -62 -140 -120 -169 -113 -351 -195 -540
-245 -181 -47 -246 -55 -455 -55 -164 0 -213 4 -310 23 -348 71 -650 225 -902
461 -391 366 -604 918 -559 1444 35 412 184 761 460 1075 50 57 91 111 91 121
0 32 -30 61 -63 61 -27 0 -43 -11 -88 -57 -137 -142 -249 -302 -340 -488 -300
-617 -253 -1334 127 -1910 72 -109 199 -260 285 -338 l72 -65 -61 -7 c-149
-17 -341 -110 -463 -222 -95 -88 -111 -179 -49 -276 48 -76 151 -108 236 -72
20 8 59 36 87 61 104 94 212 125 402 117 121 -6 221 6 333 39 l73 21 117 -36
c140 -44 184 -54 322 -73 412 -55 873 48 1244 278 169 104 389 297 402 352 10
42 -18 94 -61 112 -39 16 -28 19 -220 -59 -60 -25 -127 -48 -147 -52 -37 -7
-38 -7 -38 24 0 41 -33 105 -66 128 -73 51 -73 52 -94 173 -32 185 -33 182 69
301 104 122 170 306 157 437 -4 34 -18 93 -31 131 -27 74 -32 135 -12 148 6 4
40 10 73 14 39 4 73 14 92 27 44 32 77 113 77 193 0 61 -3 71 -34 109 -21 26
-37 61 -43 89 -15 81 -48 132 -115 177 -34 23 -67 44 -73 46 -10 3 -10 17 -1
60 10 46 9 62 -3 91 -23 57 -99 84 -153 54 -39 -22 -241 -207 -317 -290 -100
-112 -115 -143 -151 -327 -29 -144 -48 -163 -175 -173 -106 -9 -182 -31 -280
-79 -120 -60 -238 -178 -298 -298 -52 -105 -65 -157 -96 -389 -14 -101 -27
-185 -30 -188 -14 -14 -165 205 -229 333 -158 315 -202 671 -127 1015 99 456
419 860 837 1059 96 46 255 101 345 119 31 7 68 21 82 32 47 37 43 121 -6 153
-47 31 -319 50 -492 35z"/>
</g>
</svg>
